# xmcd CD database file
#
# Track frame offsets:
#	182
#	25977
#	46590
#	65472
#	92655
#	122702
#	151162
#	172532
#	197062
#	224355
#	239537
#
# Disc length: 3480 seconds
#
# Revision: 3
# Processed by: cddbd v1.5.2PL0 Copyright (c) Steve Scherf et al.
# Submitted via: CDex 1.51
#
DISCID=870d960b
DTITLE=Billy Branch - The Blues Keep Following Me Around
DYEAR=1995
DGENRE=Blues
TTITLE0=Bring It On Home
TTITLE1=Grown Men Cry
TTITLE2=Polk Salad Annie
TTITLE3=If Heartaches Were Nickels
TTITLE4=You
TTITLE5=The Blues Follow Me Around
TTITLE6=Flamin' Mamie
TTITLE7=Should Have Been Gone
TTITLE8=Should Have Known Better
TTITLE9=Evil
TTITLE10=Where's My Money
EXTD=YEAR: 1995
EXTT0=
EXTT1=
EXTT2=
EXTT3=
EXTT4=
EXTT5=
EXTT6=
EXTT7=
EXTT8=
EXTT9=
EXTT10=
PLAYORDER=
